<svg id="Group_5109" data-name="Group 5109" xmlns="http://www.w3.org/2000/svg" xmlns:xlink="http://www.w3.org/1999/xlink" width="205.992" height="23.708" viewBox="0 0 205.992 23.708">
  <defs>
    <clipPath id="clip-path">
      <path id="Path_40" data-name="Path 40" d="M0-35.445H205.181v-22.9H0Z" transform="translate(0 58.342)" fill="#0d5f0d"/>
    </clipPath>
    <clipPath id="clip-path-2">
      <path id="Path_40-2" data-name="Path 40" d="M0-35.445H205.181v-22.9H0Z" transform="translate(0 58.342)" fill="#cbffaa"/>
    </clipPath>
  </defs>
  <g id="Group_416" data-name="Group 416" transform="translate(0)">
    <g id="Group_180" data-name="Group 180" transform="translate(0 0)">
      <g id="Group_178" data-name="Group 178" transform="translate(0 0)" clip-path="url(#clip-path)">
        <g id="Group_177" data-name="Group 177" transform="translate(0 0)">
          <path id="Path_39" data-name="Path 39" d="M-315.288-20.154l1.506-12.925h-8.452l1.506,12.925Zm-24.744,8.774h15.383v-6.384h-7.128V-32.576h-8.256Zm-2.262-4.772a10.385,10.385,0,0,0,1.659-5.807,11.455,11.455,0,0,0-.929-4.712,10.176,10.176,0,0,0-2.555-3.524,11.379,11.379,0,0,0-3.816-2.21,15.254,15.254,0,0,0-5.064-.77,11.808,11.808,0,0,0-5.555,1.407,11.016,11.016,0,0,0-4.274,3.929,10.617,10.617,0,0,0-1.593,5.794,10.577,10.577,0,0,0,1.725,5.913,10.671,10.671,0,0,0,1.911,2.217,11.965,11.965,0,0,0,8.176,3.053,13.054,13.054,0,0,0,5.893-1.374,11.064,11.064,0,0,0,4.42-3.916m-6.689-8.368a5.117,5.117,0,0,1-.212,1.327,9.906,9.906,0,0,1-2.349,4.247,3.038,3.038,0,0,1-2.031,1.181,1.959,1.959,0,0,1-2.23-2.2,5.366,5.366,0,0,1,.212-1.42,9.639,9.639,0,0,1,2.389-4.208,3.138,3.138,0,0,1,2.071-1.168q2.15,0,2.15,2.243M-372.2-10.862a47.309,47.309,0,0,0,7.433-.783v-9.849q-.12.014-.863.013l-2.031.013h-3.928v1.925q0,.769-.027,1.261a2.776,2.776,0,0,1-1.141.186,2.714,2.714,0,0,1-2.17-.916,3.468,3.468,0,0,1-.79-2.349A4.808,4.808,0,0,1-374.047-25a6.545,6.545,0,0,1,4.659-1.579,12.317,12.317,0,0,1,3.584.6V-32.39a3.1,3.1,0,0,1-.345-.119,14.605,14.605,0,0,0-4.9-.664A16.79,16.79,0,0,0-381.38-30.16a9.569,9.569,0,0,0-4.028,8.069,10.512,10.512,0,0,0,1.009,4.652,10.392,10.392,0,0,0,2.787,3.537,12.772,12.772,0,0,0,4.208,2.25,16.731,16.731,0,0,0,5.2.79m-16.49-.518h2.854v-21.2h-7.472v8.256l-11.574-8.256h-2.15v21.2h7.446v-7.287Zm-19.357-8.455V-32.576h-7.339v12.45a4.051,4.051,0,0,1-.133,1.062,2.049,2.049,0,0,1-2.177,1.646,2.52,2.52,0,0,1-1.048-.2,2.406,2.406,0,0,1-1.261-2.455v-12.5h-8.375v12.742q0,8.972,10.552,8.972,9.782,0,9.782-8.972M-429.6-17.491a11.5,11.5,0,0,0,.856-4.612,12.954,12.954,0,0,0-1.122-5.216,9.69,9.69,0,0,0-3.312-4.128,9.135,9.135,0,0,0-2.555-1.267,13.18,13.18,0,0,0-3.889-.458q-2.462,0-10.519.6v21.2h10.167a11.418,11.418,0,0,0,8-2.787,9.44,9.44,0,0,0,2.369-3.325m-7.6-6.205q0,2.483-3.159,4.752-.823.585-1.527,1.181v-8.083a2.757,2.757,0,0,1,2.1-1.115,2.182,2.182,0,0,1,1.865,1.029A3.831,3.831,0,0,1-437.2-23.7m-17.021,12.317h2.854v-21.2h-7.472v8.256l-11.574-8.256h-2.15v21.158l.021.038h7.425v-7.287Zm-18.343,0v-.038L-483.851-31.58a2.6,2.6,0,0,0-1.161-1.108,3.189,3.189,0,0,0-1.361-.352,4.4,4.4,0,0,0-1.048.106,2.848,2.848,0,0,0-2,1.433l-10.539,20.121h9.37l.717-2.1h5.734l.836,2.1Zm-12.375-6.3h-4.287l2.257-5.734Zm-13.484.193a11.5,11.5,0,0,0,.856-4.612,12.957,12.957,0,0,0-1.122-5.216A9.691,9.691,0,0,0-502-31.448a9.137,9.137,0,0,0-2.555-1.267,13.18,13.18,0,0,0-3.888-.458q-2.463,0-10.519.6v21.2H-508.8a11.418,11.418,0,0,0,8-2.787,9.441,9.441,0,0,0,2.369-3.325m-7.6-6.205q0,2.483-3.158,4.752-.824.585-1.527,1.181v-8.083a2.758,2.758,0,0,1,2.1-1.115,2.182,2.182,0,0,1,1.865,1.029,3.83,3.83,0,0,1,.717,2.236M-320.9-16.549a3.81,3.81,0,0,0-1.3,2.771,3.5,3.5,0,0,0,.951,2.508,3.946,3.946,0,0,0,3,.995A4.432,4.432,0,0,0-315-11.5a3.793,3.793,0,0,0,1.214-2.749,3.444,3.444,0,0,0-.936-2.5,3.253,3.253,0,0,0-1.184-.782,4.716,4.716,0,0,0-1.74-.285,4.492,4.492,0,0,0-3.261,1.265" transform="translate(518.963 33.173)" fill="#0d5f0d"/>
        </g>
      </g>
    </g>
  </g>
  <g id="Group_817" data-name="Group 817" transform="translate(0.811 0.811)">
    <g id="Group_180-2" data-name="Group 180" transform="translate(0 0)">
      <g id="Group_178-2" data-name="Group 178" transform="translate(0 0)" clip-path="url(#clip-path-2)">
        <g id="Group_177-2" data-name="Group 177" transform="translate(0 0)">
          <path id="Path_39-2" data-name="Path 39" d="M-315.288-20.154l1.506-12.925h-8.452l1.506,12.925Zm-24.744,8.774h15.383v-6.384h-7.128V-32.576h-8.256Zm-2.262-4.772a10.385,10.385,0,0,0,1.659-5.807,11.455,11.455,0,0,0-.929-4.712,10.176,10.176,0,0,0-2.555-3.524,11.379,11.379,0,0,0-3.816-2.21,15.254,15.254,0,0,0-5.064-.77,11.808,11.808,0,0,0-5.555,1.407,11.016,11.016,0,0,0-4.274,3.929,10.617,10.617,0,0,0-1.593,5.794,10.577,10.577,0,0,0,1.725,5.913,10.671,10.671,0,0,0,1.911,2.217,11.965,11.965,0,0,0,8.176,3.053,13.054,13.054,0,0,0,5.893-1.374,11.064,11.064,0,0,0,4.42-3.916m-6.689-8.368a5.117,5.117,0,0,1-.212,1.327,9.906,9.906,0,0,1-2.349,4.247,3.038,3.038,0,0,1-2.031,1.181,1.959,1.959,0,0,1-2.23-2.2,5.366,5.366,0,0,1,.212-1.42,9.639,9.639,0,0,1,2.389-4.208,3.138,3.138,0,0,1,2.071-1.168q2.15,0,2.15,2.243M-372.2-10.862a47.309,47.309,0,0,0,7.433-.783v-9.849q-.12.014-.863.013l-2.031.013h-3.928v1.925q0,.769-.027,1.261a2.776,2.776,0,0,1-1.141.186,2.714,2.714,0,0,1-2.17-.916,3.468,3.468,0,0,1-.79-2.349A4.808,4.808,0,0,1-374.047-25a6.545,6.545,0,0,1,4.659-1.579,12.317,12.317,0,0,1,3.584.6V-32.39a3.1,3.1,0,0,1-.345-.119,14.605,14.605,0,0,0-4.9-.664A16.79,16.79,0,0,0-381.38-30.16a9.569,9.569,0,0,0-4.028,8.069,10.512,10.512,0,0,0,1.009,4.652,10.392,10.392,0,0,0,2.787,3.537,12.772,12.772,0,0,0,4.208,2.25,16.731,16.731,0,0,0,5.2.79m-16.49-.518h2.854v-21.2h-7.472v8.256l-11.574-8.256h-2.15v21.2h7.446v-7.287Zm-19.357-8.455V-32.576h-7.339v12.45a4.051,4.051,0,0,1-.133,1.062,2.049,2.049,0,0,1-2.177,1.646,2.52,2.52,0,0,1-1.048-.2,2.406,2.406,0,0,1-1.261-2.455v-12.5h-8.375v12.742q0,8.972,10.552,8.972,9.782,0,9.782-8.972M-429.6-17.491a11.5,11.5,0,0,0,.856-4.612,12.954,12.954,0,0,0-1.122-5.216,9.69,9.69,0,0,0-3.312-4.128,9.135,9.135,0,0,0-2.555-1.267,13.18,13.18,0,0,0-3.889-.458q-2.462,0-10.519.6v21.2h10.167a11.418,11.418,0,0,0,8-2.787,9.44,9.44,0,0,0,2.369-3.325m-7.6-6.205q0,2.483-3.159,4.752-.823.585-1.527,1.181v-8.083a2.757,2.757,0,0,1,2.1-1.115,2.182,2.182,0,0,1,1.865,1.029A3.831,3.831,0,0,1-437.2-23.7m-17.021,12.317h2.854v-21.2h-7.472v8.256l-11.574-8.256h-2.15v21.158l.021.038h7.425v-7.287Zm-18.343,0v-.038L-483.851-31.58a2.6,2.6,0,0,0-1.161-1.108,3.189,3.189,0,0,0-1.361-.352,4.4,4.4,0,0,0-1.048.106,2.848,2.848,0,0,0-2,1.433l-10.539,20.121h9.37l.717-2.1h5.734l.836,2.1Zm-12.375-6.3h-4.287l2.257-5.734Zm-13.484.193a11.5,11.5,0,0,0,.856-4.612,12.957,12.957,0,0,0-1.122-5.216A9.691,9.691,0,0,0-502-31.448a9.137,9.137,0,0,0-2.555-1.267,13.18,13.18,0,0,0-3.888-.458q-2.463,0-10.519.6v21.2H-508.8a11.418,11.418,0,0,0,8-2.787,9.441,9.441,0,0,0,2.369-3.325m-7.6-6.205q0,2.483-3.158,4.752-.824.585-1.527,1.181v-8.083a2.758,2.758,0,0,1,2.1-1.115,2.182,2.182,0,0,1,1.865,1.029,3.83,3.83,0,0,1,.717,2.236M-320.9-16.549a3.81,3.81,0,0,0-1.3,2.771,3.5,3.5,0,0,0,.951,2.508,3.946,3.946,0,0,0,3,.995A4.432,4.432,0,0,0-315-11.5a3.793,3.793,0,0,0,1.214-2.749,3.444,3.444,0,0,0-.936-2.5,3.253,3.253,0,0,0-1.184-.782,4.716,4.716,0,0,0-1.74-.285,4.492,4.492,0,0,0-3.261,1.265" transform="translate(518.963 33.173)" fill="#cbffaa"/>
        </g>
      </g>
    </g>
  </g>
</svg>
